<?xml version="1.0" encoding="iso-8859-1"?>
<!-- Generator: Adobe Illustrator 19.0.0, SVG Export Plug-In . SVG Version: 6.00 Build 0)  -->
<svg version="1.1" id="Capa_1" xmlns="http://www.w3.org/2000/svg" xmlns:xlink="http://www.w3.org/1999/xlink" x="0px" y="0px"
	 viewBox="0 0 512 512" style="enable-background:new 0 0 512 512;" xml:space="preserve">
<g>
	<g>
		<path d="M504.485,119.764c4.151,0,7.515-3.364,7.515-7.515V23.576c0-4.151-3.364-7.515-7.515-7.515H7.515
			C3.364,16.061,0,19.425,0,23.576v368.72c0,4.151,3.364,7.515,7.515,7.515h112.72v88.673c0,6.539,8.187,9.952,12.829,5.314
			l93.987-93.988h277.435c4.151,0,7.515-3.364,7.515-7.515V147.819c0-4.151-3.364-7.515-7.515-7.515
			c-4.151,0-7.515,3.364-7.515,7.515v236.963H223.937c-1.993,0-3.904,0.792-5.314,2.2l-83.359,83.36v-78.045
			c0-4.151-3.364-7.515-7.515-7.515H15.029V31.091h481.941v81.159C496.971,116.4,500.334,119.764,504.485,119.764z"/>
	</g>
</g>
<g>
	<g>
		<path d="M175.843,104.173H95.687c-4.151,0-7.515,3.364-7.515,7.515c0,4.151,3.364,7.515,7.515,7.515h80.157
			c4.151,0,7.515-3.364,7.515-7.515C183.358,107.537,179.995,104.173,175.843,104.173z"/>
	</g>
</g>
<g>
	<g>
		<path d="M135.765,168.299H95.687c-4.151,0-7.515,3.364-7.515,7.515c0,4.151,3.364,7.515,7.515,7.515h40.078
			c4.151,0,7.515-3.364,7.515-7.515C143.28,171.662,139.916,168.299,135.765,168.299z"/>
	</g>
</g>
<g>
	<g>
		<path d="M296.078,168.299H175.843c-4.151,0-7.515,3.365-7.515,7.515c0,4.151,3.364,7.515,7.515,7.515h120.235
			c4.151,0,7.515-3.364,7.515-7.515C303.593,171.662,300.229,168.299,296.078,168.299z"/>
	</g>
</g>
<g>
	<g>
		<path d="M183.859,232.424H95.687c-4.151,0-7.515,3.364-7.515,7.515c0,4.151,3.364,7.515,7.515,7.515h88.172
			c4.151,0,7.515-3.364,7.515-7.515C191.374,235.787,188.01,232.424,183.859,232.424z"/>
	</g>
</g>
<g>
	<g>
		<path d="M247.984,232.424h-24.047c-4.151,0-7.515,3.364-7.515,7.515c0,4.151,3.364,7.515,7.515,7.515h24.047
			c4.151,0,7.515-3.364,7.515-7.515C255.499,235.787,252.135,232.424,247.984,232.424z"/>
	</g>
</g>
<g>
	<g>
		<path d="M135.765,296.549H95.687c-4.151,0-7.515,3.364-7.515,7.515c0,4.151,3.364,7.515,7.515,7.515h40.078
			c4.151,0,7.515-3.364,7.515-7.515C143.28,299.913,139.916,296.549,135.765,296.549z"/>
	</g>
</g>
<g>
	<g>
		<path d="M199.89,296.549h-24.047c-4.151,0-7.515,3.364-7.515,7.515c0,4.151,3.364,7.515,7.515,7.515h24.047
			c4.151,0,7.515-3.364,7.515-7.515C207.405,299.913,204.042,296.549,199.89,296.549z"/>
	</g>
</g>
<g>
	<g>
		<path d="M247.984,104.173h-32.063c-4.151,0-7.515,3.364-7.515,7.515c0,4.151,3.364,7.515,7.515,7.515h32.063
			c4.151,0,7.515-3.364,7.515-7.515C255.499,107.537,252.135,104.173,247.984,104.173z"/>
	</g>
</g>
<g>
	<g>
		<path d="M368.219,104.173h-80.157c-4.151,0-7.515,3.364-7.515,7.515c0,4.151,3.364,7.515,7.515,7.515h80.157
			c4.151,0,7.515-3.364,7.515-7.515C375.734,107.537,372.37,104.173,368.219,104.173z"/>
	</g>
</g>
<g>
	<g>
		<path d="M416.313,232.424h-40.078c-4.151,0-7.515,3.364-7.515,7.515c0,4.151,3.364,7.515,7.515,7.515h40.078
			c4.151,0,7.515-3.364,7.515-7.515C423.828,235.787,420.464,232.424,416.313,232.424z"/>
	</g>
</g>
<g>
	<g>
		<path d="M336.157,296.549H312.11c-4.151,0-7.515,3.364-7.515,7.515c0,4.151,3.364,7.515,7.515,7.515h24.047
			c4.151,0,7.515-3.364,7.515-7.515C343.671,299.913,340.308,296.549,336.157,296.549z"/>
	</g>
</g>
<g>
	<g>
		<path d="M416.313,296.549h-40.078c-4.151,0-7.515,3.364-7.515,7.515c0,4.151,3.364,7.515,7.515,7.515h40.078
			c4.151,0,7.515-3.364,7.515-7.515C423.828,299.913,420.464,296.549,416.313,296.549z"/>
	</g>
</g>
<g>
	<g>
		<path d="M473.945,100.776l-22.671-22.671c-2.936-2.934-7.693-2.934-10.628,0L230.931,287.817c-0.486,0.488-0.92,1.063-1.255,1.664
			l-28.339,51.012c-1.645,2.963-1.037,6.84,1.449,9.146c2.343,2.171,5.973,2.628,8.77,1.074l51.012-28.339
			c0.601-0.334,1.176-0.771,1.664-1.255l209.714-209.715C476.879,108.468,476.879,103.71,473.945,100.776z M227.247,324.801
			l10.729-19.312l8.583,8.583L227.247,324.801z M258.919,305.175l-12.045-12.044l176.413-176.414l12.044,12.044L258.919,305.175z
			 M445.96,118.134l-12.044-12.044l12.044-12.044l12.044,12.045L445.96,118.134z"/>
	</g>
</g>
<g>
</g>
<g>
</g>
<g>
</g>
<g>
</g>
<g>
</g>
<g>
</g>
<g>
</g>
<g>
</g>
<g>
</g>
<g>
</g>
<g>
</g>
<g>
</g>
<g>
</g>
<g>
</g>
<g>
</g>
</svg>
